<mxfile host="Electron" agent="Mozilla/5.0 (X11; Linux x86_64) AppleWebKit/537.36 (KHTML, like Gecko) draw.io/24.7.8 Chrome/128.0.6613.36 Electron/32.0.1 Safari/537.36" version="24.7.8">
  <diagram name="Page-1" id="hMbeztWOzvr8wbrp_fY9">
    <mxGraphModel dx="1434" dy="835" grid="1" gridSize="10" guides="1" tooltips="1" connect="1" arrows="1" fold="1" page="1" pageScale="1" pageWidth="850" pageHeight="1100" math="0" shadow="0">
      <root>
        <mxCell id="0" />
        <mxCell id="1" parent="0" />
        <mxCell id="HN--gCK0EmiijaetKeHb-7" value="" style="edgeStyle=orthogonalEdgeStyle;rounded=0;orthogonalLoop=1;jettySize=auto;html=1;" edge="1" parent="1" source="HN--gCK0EmiijaetKeHb-1" target="HN--gCK0EmiijaetKeHb-2">
          <mxGeometry relative="1" as="geometry" />
        </mxCell>
        <mxCell id="HN--gCK0EmiijaetKeHb-13" value="rdfs:subClassOf" style="edgeLabel;html=1;align=center;verticalAlign=middle;resizable=0;points=[];" vertex="1" connectable="0" parent="HN--gCK0EmiijaetKeHb-7">
          <mxGeometry x="-0.12" y="3" relative="1" as="geometry">
            <mxPoint as="offset" />
          </mxGeometry>
        </mxCell>
        <mxCell id="HN--gCK0EmiijaetKeHb-1" value="pmd:Object" style="rounded=0;whiteSpace=wrap;html=1;" vertex="1" parent="1">
          <mxGeometry x="550" y="260" width="120" height="60" as="geometry" />
        </mxCell>
        <mxCell id="HN--gCK0EmiijaetKeHb-4" value="" style="edgeStyle=orthogonalEdgeStyle;rounded=0;orthogonalLoop=1;jettySize=auto;html=1;" edge="1" parent="1" source="HN--gCK0EmiijaetKeHb-2" target="HN--gCK0EmiijaetKeHb-3">
          <mxGeometry relative="1" as="geometry" />
        </mxCell>
        <mxCell id="HN--gCK0EmiijaetKeHb-14" value="rdfs:subClassOf" style="edgeLabel;html=1;align=center;verticalAlign=middle;resizable=0;points=[];" vertex="1" connectable="0" parent="HN--gCK0EmiijaetKeHb-4">
          <mxGeometry x="0.08" y="-1" relative="1" as="geometry">
            <mxPoint as="offset" />
          </mxGeometry>
        </mxCell>
        <mxCell id="HN--gCK0EmiijaetKeHb-2" value="pmd:EngineeredMaterial" style="rounded=0;whiteSpace=wrap;html=1;" vertex="1" parent="1">
          <mxGeometry x="550" y="370" width="120" height="60" as="geometry" />
        </mxCell>
        <mxCell id="HN--gCK0EmiijaetKeHb-6" value="" style="edgeStyle=orthogonalEdgeStyle;rounded=0;orthogonalLoop=1;jettySize=auto;html=1;" edge="1" parent="1" source="HN--gCK0EmiijaetKeHb-3" target="HN--gCK0EmiijaetKeHb-5">
          <mxGeometry relative="1" as="geometry" />
        </mxCell>
        <mxCell id="HN--gCK0EmiijaetKeHb-12" value="rdf:type" style="edgeLabel;html=1;align=center;verticalAlign=middle;resizable=0;points=[];" vertex="1" connectable="0" parent="HN--gCK0EmiijaetKeHb-6">
          <mxGeometry x="-0.025" relative="1" as="geometry">
            <mxPoint as="offset" />
          </mxGeometry>
        </mxCell>
        <mxCell id="HN--gCK0EmiijaetKeHb-3" value="pmd:Sample" style="rounded=0;whiteSpace=wrap;html=1;" vertex="1" parent="1">
          <mxGeometry x="550" y="480" width="120" height="60" as="geometry" />
        </mxCell>
        <mxCell id="HN--gCK0EmiijaetKeHb-5" value="sample_" style="rounded=0;whiteSpace=wrap;html=1;" vertex="1" parent="1">
          <mxGeometry x="550" y="620" width="120" height="60" as="geometry" />
        </mxCell>
        <mxCell id="HN--gCK0EmiijaetKeHb-10" value="" style="edgeStyle=orthogonalEdgeStyle;rounded=0;orthogonalLoop=1;jettySize=auto;html=1;" edge="1" parent="1" source="HN--gCK0EmiijaetKeHb-8" target="HN--gCK0EmiijaetKeHb-9">
          <mxGeometry relative="1" as="geometry" />
        </mxCell>
        <mxCell id="HN--gCK0EmiijaetKeHb-11" value="rdf:type" style="edgeLabel;html=1;align=center;verticalAlign=middle;resizable=0;points=[];" vertex="1" connectable="0" parent="HN--gCK0EmiijaetKeHb-10">
          <mxGeometry x="0.05" y="-4" relative="1" as="geometry">
            <mxPoint as="offset" />
          </mxGeometry>
        </mxCell>
        <mxCell id="HN--gCK0EmiijaetKeHb-8" value="pmd:Process" style="rounded=0;whiteSpace=wrap;html=1;" vertex="1" parent="1">
          <mxGeometry x="320" y="480" width="120" height="60" as="geometry" />
        </mxCell>
        <mxCell id="HN--gCK0EmiijaetKeHb-15" value="" style="edgeStyle=orthogonalEdgeStyle;rounded=0;orthogonalLoop=1;jettySize=auto;html=1;" edge="1" parent="1" source="HN--gCK0EmiijaetKeHb-9" target="HN--gCK0EmiijaetKeHb-5">
          <mxGeometry relative="1" as="geometry" />
        </mxCell>
        <mxCell id="HN--gCK0EmiijaetKeHb-16" value="pmd:input" style="edgeLabel;html=1;align=center;verticalAlign=middle;resizable=0;points=[];" vertex="1" connectable="0" parent="HN--gCK0EmiijaetKeHb-15">
          <mxGeometry x="-0.0364" y="-2" relative="1" as="geometry">
            <mxPoint as="offset" />
          </mxGeometry>
        </mxCell>
        <mxCell id="HN--gCK0EmiijaetKeHb-9" value="experiment_" style="rounded=0;whiteSpace=wrap;html=1;" vertex="1" parent="1">
          <mxGeometry x="320" y="620" width="120" height="60" as="geometry" />
        </mxCell>
      </root>
    </mxGraphModel>
  </diagram>
</mxfile>
